:SAMPLES-PER-SECOND 30
:FULLY-SPECIFIED
:DEGREES
214
root  -2.21488 20.7223 -17.9808 26.3768 9.07481 25.8571
RightUpLeg  -17.5407 -20.0067 -4.58706
RightLeg  100.89 18.5134 -11.2482
RightFoot  -1.53814 0.342859 -3.37306
RightToes  5.82077e-011 -3.18055e-015 -2.98177e-016
Spine  44.9742 -0.974163 6.42035
Spine1  10.0126 -2.77573 -1.47
HEad  -23.9951 -12.4737 10.4358
LeftShoulder1  -3.88251e-019 9.70628e-020 -3.87848e-018
LeftArm  10.0959 -3.89566 -61.7944
LeftForeArm  -2.60209 -42.0665 10.1417
LeftHand  -3.38936 -13.5756 21.2177
RightShoulder  2.6682 9.45228 10.2029
RightArm  -12.1382 14.5382 42.4661
RightForeArm  -1.97325 15.5326 -11.4273
RightHand  -10.8116 9.40561 -72.8704
LeftUpLeg  -101.366 -18.914 -25.8612
LeftLeg  104.081 -16.1569 9.47474
LeftFoot  -28.4181 -1.20966 -8.25134
LeftToes  1.39127e-010 -3.60802e-011 -7.31315e-011
215
root  -1.67661 20.7413 -17.6722 25.4796 6.78352 24.5373
RightUpLeg  -15.8418 -18.856 -6.39077
RightLeg  99.9001 18.5033 -11.9349
RightFoot  -2.71993 0.318154 -3.45425
RightToes  5.82077e-011 -3.18055e-015 -2.98177e-016
Spine  43.9184 0.356664 7.89262
Spine1  10.4493 -1.37262 -2.35617
HEad  -23.6675 -12.2307 9.20439
LeftShoulder1  -3.88251e-019 9.70628e-020 -3.87848e-018
LeftArm  8.07542 3.41246 -60.3663
LeftForeArm  -3.40267 -45.936 11.6799
LeftHand  -3.04318 -13.8105 18.8972
RightShoulder  2.65864 9.32641 10.2966
RightArm  -10.8079 14.0387 40.0648
RightForeArm  -2.13407 14.8124 -11.1714
RightHand  -10.6082 9.17296 -72.6908
LeftUpLeg  -101.584 -18.0512 -28.8952
LeftLeg  98.7178 -16.3596 13.8376
LeftFoot  -23.4963 -0.296629 -2.47035
LeftToes  1.39127e-010 -3.60802e-011 -7.31315e-011
216
root  -1.08111 20.8736 -17.3303 23.5382 3.6792 23.4736
RightUpLeg  -13.2938 -16.6383 -9.45751
RightLeg  98.9144 18.2788 -11.8273
RightFoot  -3.46072 0.412018 -4.76687
RightToes  5.82077e-011 -3.18055e-015 -2.98177e-016
Spine  44.3137 0.775751 9.20522
Spine1  11.6384 -0.107232 -4.12767
HEad  -24.0703 -11.1889 8.57166
LeftShoulder1  -3.88251e-019 9.70628e-020 -3.87848e-018
LeftArm  6.93636 11.0918 -58.4509
LeftForeArm  -2.33945 -48.7827 13.0684
LeftHand  -3.12015 -13.8727 19.2951
RightShoulder  2.31755 9.37154 8.13556
RightArm  -11.9466 11.4734 39.2672
RightForeArm  -1.64276 14.7731 -11.377
RightHand  -10.5011 9.0249 -72.6901
LeftUpLeg  -99.6635 -16.1496 -31.3388
LeftLeg  96.5552 -16.737 17.8826
LeftFoot  -20.9088 0.19826 3.47221
LeftToes  1.39127e-010 -3.60802e-011 -7.31315e-011
217
root  -0.459869 21.1239 -16.9854 21.5237 -0.129451 22.7254
RightUpLeg  -11.4448 -13.4885 -12.969
RightLeg  97.9264 17.9773 -11.3567
RightFoot  -3.48352 0.542752 -6.30426
RightToes  5.82077e-011 -3.18055e-015 -2.98177e-016
Spine  45.283 1.19743 10.1572
Spine1  12.2945 1.52437 -6.11052
HEad  -25.079 -10.3478 8.30825
LeftShoulder1  -3.88251e-019 9.70628e-020 -3.87848e-018
LeftArm  6.7318 18.7585 -56.9283
LeftForeArm  -2.22277 -50.7444 14.0917
LeftHand  -3.08843 -13.3734 19.5992
RightShoulder  2.04169 9.73554 6.04385
RightArm  -12.1937 8.75413 38.4481
RightForeArm  -2.36195 13.4927 -11.4835
RightHand  -10.4399 9.00405 -72.4483
LeftUpLeg  -97.4505 -13.9877 -32.76
LeftLeg  96.2462 -17.3112 20.7889
LeftFoot  -22.1591 0.358028 5.31404
LeftToes  1.39127e-010 -3.60802e-011 -7.31315e-011
218
root  0.15503 21.5059 -16.7072 19.6993 -4.4091 21.9958
RightUpLeg  -10.8553 -9.63016 -15.9454
RightLeg  96.7531 17.7423 -11.2877
RightFoot  -3.01601 0.626768 -6.97974
RightToes  5.82077e-011 -3.18055e-015 -2.98177e-016
Spine  46.8064 2.03621 11.1778
Spine1  11.9421 4.00307 -8.40332
HEad  -26.9052 -10.5051 7.9678
LeftShoulder1  -3.88251e-019 9.70628e-020 -3.87848e-018
LeftArm  8.32398 25.1385 -55.9385
LeftForeArm  -4.16296 -51.9388 14.6328
LeftHand  -2.81075 -13.0535 18.2099
RightShoulder  2.15925 10.2434 6.24852
RightArm  -9.80969 8.39402 36.2477
RightForeArm  -3.99227 8.9896 -10.7696
RightHand  -10.2268 8.99741 -71.3437
LeftUpLeg  -95.4495 -11.7424 -33.636
LeftLeg  95.467 -17.6325 23.3425
LeftFoot  -24.6949 0.350024 4.10763
LeftToes  1.39127e-010 -3.60802e-011 -7.31315e-011
219
root  0.719042 22.0198 -16.4977 18.1904 -8.72354 20.9337
RightUpLeg  -11.1434 -5.56384 -17.5732
RightLeg  94.8995 17.5957 -12.4451
RightFoot  -2.55166 0.650376 -6.94507
RightToes  5.82077e-011 -3.18055e-015 -2.98177e-016
Spine  49.0429 3.12899 12.5856
Spine1  10.775 7.18797 -10.7103
HEad  -29.5164 -11.4541 6.86744
LeftShoulder1  -3.88251e-019 9.70628e-020 -3.87848e-018
LeftArm  11.8508 29.8631 -55.1453
LeftForeArm  -5.66559 -52.307 14.7443
LeftHand  -2.67909 -13.1775 17.2705
RightShoulder  2.43308 10.4097 7.70712
RightArm  -8.8353 9.70491 33.264
RightForeArm  -2.63906 3.05079 -8.97662
RightHand  -9.68865 8.75823 -69.319
LeftUpLeg  -93.7137 -9.12589 -34.1582
LeftLeg  93.7383 -17.4492 25.7102
LeftFoot  -25.9951 0.287468 3.15131
LeftToes  1.39127e-010 -3.60802e-011 -7.31315e-011
220
root  1.19295 22.6243 -16.2992 17.6052 -11.5992 19.7469
RightUpLeg  -11.4283 -2.98674 -17.8157
RightLeg  91.9927 17.3064 -14.7691
RightFoot  -2.56509 0.605683 -6.47279
RightToes  5.82077e-011 -3.18055e-015 -2.98177e-016
Spine  51.0379 3.86065 14.0623
Spine1  8.89742 9.68985 -12.2342
HEad  -32.1043 -12.3057 4.97883
LeftShoulder1  -3.88251e-019 9.70628e-020 -3.87848e-018
LeftArm  15.9778 34.2257 -53.8952
LeftForeArm  -4.99909 -52.1105 14.6739
LeftHand  -2.87958 -13.3947 18.2986
RightShoulder  2.63068 10.4531 8.81274
RightArm  -8.97423 10.6245 30.764
RightForeArm  0.175474 -1.67897 -7.61219
RightHand  -8.65152 8.00492 -66.1816
LeftUpLeg  -92.1258 -7.33977 -34.1645
LeftLeg  91.7482 -16.8655 27.3496
LeftFoot  -26.2409 0.324859 3.43279
LeftToes  1.39127e-010 -3.60802e-011 -7.31315e-011
